<?xml version="1.0" encoding="UTF-8" standalone="no"?>
<!DOCTYPE svg PUBLIC "-//W3C//DTD SVG 1.1//EN"
 "http://www.w3.org/Graphics/SVG/1.1/DTD/svg11.dtd">
<!-- Generated by graphviz version 2.47.3 (20210619.1520)
 -->
<!-- Pages: 1 -->
<svg width="1163pt" height="548pt"
 viewBox="0.00 0.00 1163.20 548.00" xmlns="http://www.w3.org/2000/svg" xmlns:xlink="http://www.w3.org/1999/xlink">
<g id="graph0" class="graph" transform="scale(1 1) rotate(0) translate(4 544)">
<polygon fill="white" stroke="transparent" points="-4,4 -4,-544 1159.2,-544 1159.2,4 -4,4"/>
<!-- [root] azurerm_linux_virtual_machine.mylinuxvm (expand) -->
<g id="node1" class="node">
<title>[root] azurerm_linux_virtual_machine.mylinuxvm (expand)</title>
<polygon fill="none" stroke="black" points="624.63,-396 365.63,-396 365.63,-360 624.63,-360 624.63,-396"/>
<text text-anchor="middle" x="495.13" y="-374.3" font-family="Times,serif" font-size="14.00">azurerm_linux_virtual_machine.mylinuxvm</text>
</g>
<!-- [root] azurerm_network_interface.myvmnic (expand) -->
<g id="node2" class="node">
<title>[root] azurerm_network_interface.myvmnic (expand)</title>
<polygon fill="none" stroke="black" points="609.63,-324 386.63,-324 386.63,-288 609.63,-288 609.63,-324"/>
<text text-anchor="middle" x="498.13" y="-302.3" font-family="Times,serif" font-size="14.00">azurerm_network_interface.myvmnic</text>
</g>
<!-- [root] azurerm_linux_virtual_machine.mylinuxvm (expand)&#45;&gt;[root] azurerm_network_interface.myvmnic (expand) -->
<g id="edge1" class="edge">
<title>[root] azurerm_linux_virtual_machine.mylinuxvm (expand)&#45;&gt;[root] azurerm_network_interface.myvmnic (expand)</title>
<path fill="none" stroke="black" d="M495.88,-359.7C496.21,-351.98 496.6,-342.71 496.97,-334.11"/>
<polygon fill="black" stroke="black" points="500.47,-334.25 497.4,-324.1 493.48,-333.95 500.47,-334.25"/>
</g>
<!-- [root] azurerm_public_ip.mypublicip (expand) -->
<g id="node3" class="node">
<title>[root] azurerm_public_ip.mypublicip (expand)</title>
<polygon fill="none" stroke="black" points="781.63,-252 596.63,-252 596.63,-216 781.63,-216 781.63,-252"/>
<text text-anchor="middle" x="689.13" y="-230.3" font-family="Times,serif" font-size="14.00">azurerm_public_ip.mypublicip</text>
</g>
<!-- [root] azurerm_network_interface.myvmnic (expand)&#45;&gt;[root] azurerm_public_ip.mypublicip (expand) -->
<g id="edge2" class="edge">
<title>[root] azurerm_network_interface.myvmnic (expand)&#45;&gt;[root] azurerm_public_ip.mypublicip (expand)</title>
<path fill="none" stroke="black" d="M544.86,-287.88C571.43,-278.14 604.9,-265.87 632.9,-255.61"/>
<polygon fill="black" stroke="black" points="634.38,-258.8 642.56,-252.07 631.97,-252.22 634.38,-258.8"/>
</g>
<!-- [root] azurerm_subnet.mysubnet (expand) -->
<g id="node5" class="node">
<title>[root] azurerm_subnet.mysubnet (expand)</title>
<polygon fill="none" stroke="black" points="578.63,-252 417.63,-252 417.63,-216 578.63,-216 578.63,-252"/>
<text text-anchor="middle" x="498.13" y="-230.3" font-family="Times,serif" font-size="14.00">azurerm_subnet.mysubnet</text>
</g>
<!-- [root] azurerm_network_interface.myvmnic (expand)&#45;&gt;[root] azurerm_subnet.mysubnet (expand) -->
<g id="edge3" class="edge">
<title>[root] azurerm_network_interface.myvmnic (expand)&#45;&gt;[root] azurerm_subnet.mysubnet (expand)</title>
<path fill="none" stroke="black" d="M498.13,-287.7C498.13,-279.98 498.13,-270.71 498.13,-262.11"/>
<polygon fill="black" stroke="black" points="501.63,-262.1 498.13,-252.1 494.63,-262.1 501.63,-262.1"/>
</g>
<!-- [root] azurerm_resource_group.myrg (expand) -->
<g id="node4" class="node">
<title>[root] azurerm_resource_group.myrg (expand)</title>
<polygon fill="none" stroke="black" points="592.63,-108 407.63,-108 407.63,-72 592.63,-72 592.63,-108"/>
<text text-anchor="middle" x="500.13" y="-86.3" font-family="Times,serif" font-size="14.00">azurerm_resource_group.myrg</text>
</g>
<!-- [root] azurerm_public_ip.mypublicip (expand)&#45;&gt;[root] azurerm_resource_group.myrg (expand) -->
<g id="edge4" class="edge">
<title>[root] azurerm_public_ip.mypublicip (expand)&#45;&gt;[root] azurerm_resource_group.myrg (expand)</title>
<path fill="none" stroke="black" d="M676.69,-215.81C662,-196.45 636.03,-164.96 608.13,-144 591.57,-131.55 571.62,-120.8 553.4,-112.28"/>
<polygon fill="black" stroke="black" points="554.61,-108.99 544.06,-108.04 551.72,-115.36 554.61,-108.99"/>
</g>
<!-- [root] random_string.myrandom (expand) -->
<g id="node9" class="node">
<title>[root] random_string.myrandom (expand)</title>
<polygon fill="none" stroke="black" points="963.13,-180 803.13,-180 803.13,-144 963.13,-144 963.13,-180"/>
<text text-anchor="middle" x="883.13" y="-158.3" font-family="Times,serif" font-size="14.00">random_string.myrandom</text>
</g>
<!-- [root] azurerm_public_ip.mypublicip (expand)&#45;&gt;[root] random_string.myrandom (expand) -->
<g id="edge5" class="edge">
<title>[root] azurerm_public_ip.mypublicip (expand)&#45;&gt;[root] random_string.myrandom (expand)</title>
<path fill="none" stroke="black" d="M736.59,-215.88C763.7,-206.09 797.87,-193.77 826.39,-183.47"/>
<polygon fill="black" stroke="black" points="827.61,-186.75 835.83,-180.07 825.24,-180.17 827.61,-186.75"/>
</g>
<!-- [root] provider[&quot;registry.terraform.io/hashicorp/azurerm&quot;] -->
<g id="node7" class="node">
<title>[root] provider[&quot;registry.terraform.io/hashicorp/azurerm&quot;]</title>
<polygon fill="none" stroke="black" points="500.13,-36 225.48,-18 500.13,0 774.79,-18 500.13,-36"/>
<text text-anchor="middle" x="500.13" y="-14.3" font-family="Times,serif" font-size="14.00">provider[&quot;registry.terraform.io/hashicorp/azurerm&quot;]</text>
</g>
<!-- [root] azurerm_resource_group.myrg (expand)&#45;&gt;[root] provider[&quot;registry.terraform.io/hashicorp/azurerm&quot;] -->
<g id="edge6" class="edge">
<title>[root] azurerm_resource_group.myrg (expand)&#45;&gt;[root] provider[&quot;registry.terraform.io/hashicorp/azurerm&quot;]</title>
<path fill="none" stroke="black" d="M500.13,-71.7C500.13,-63.98 500.13,-54.71 500.13,-46.11"/>
<polygon fill="black" stroke="black" points="503.63,-46.1 500.13,-36.1 496.63,-46.1 503.63,-46.1"/>
</g>
<!-- [root] azurerm_virtual_network.myvnet (expand) -->
<g id="node6" class="node">
<title>[root] azurerm_virtual_network.myvnet (expand)</title>
<polygon fill="none" stroke="black" points="599.13,-180 399.13,-180 399.13,-144 599.13,-144 599.13,-180"/>
<text text-anchor="middle" x="499.13" y="-158.3" font-family="Times,serif" font-size="14.00">azurerm_virtual_network.myvnet</text>
</g>
<!-- [root] azurerm_subnet.mysubnet (expand)&#45;&gt;[root] azurerm_virtual_network.myvnet (expand) -->
<g id="edge7" class="edge">
<title>[root] azurerm_subnet.mysubnet (expand)&#45;&gt;[root] azurerm_virtual_network.myvnet (expand)</title>
<path fill="none" stroke="black" d="M498.38,-215.7C498.49,-207.98 498.62,-198.71 498.75,-190.11"/>
<polygon fill="black" stroke="black" points="502.25,-190.15 498.89,-180.1 495.25,-190.05 502.25,-190.15"/>
</g>
<!-- [root] azurerm_virtual_network.myvnet (expand)&#45;&gt;[root] azurerm_resource_group.myrg (expand) -->
<g id="edge8" class="edge">
<title>[root] azurerm_virtual_network.myvnet (expand)&#45;&gt;[root] azurerm_resource_group.myrg (expand)</title>
<path fill="none" stroke="black" d="M499.38,-143.7C499.49,-135.98 499.62,-126.71 499.75,-118.11"/>
<polygon fill="black" stroke="black" points="503.25,-118.15 499.89,-108.1 496.25,-118.05 503.25,-118.15"/>
</g>
<!-- [root] provider[&quot;registry.terraform.io/hashicorp/random&quot;] -->
<g id="node8" class="node">
<title>[root] provider[&quot;registry.terraform.io/hashicorp/random&quot;]</title>
<polygon fill="none" stroke="black" points="883.13,-108 610.99,-90 883.13,-72 1155.28,-90 883.13,-108"/>
<text text-anchor="middle" x="883.13" y="-86.3" font-family="Times,serif" font-size="14.00">provider[&quot;registry.terraform.io/hashicorp/random&quot;]</text>
</g>
<!-- [root] random_string.myrandom (expand)&#45;&gt;[root] provider[&quot;registry.terraform.io/hashicorp/random&quot;] -->
<g id="edge12" class="edge">
<title>[root] random_string.myrandom (expand)&#45;&gt;[root] provider[&quot;registry.terraform.io/hashicorp/random&quot;]</title>
<path fill="none" stroke="black" d="M883.13,-143.7C883.13,-135.98 883.13,-126.71 883.13,-118.11"/>
<polygon fill="black" stroke="black" points="886.63,-118.1 883.13,-108.1 879.63,-118.1 886.63,-118.1"/>
</g>
<!-- [root] meta.count&#45;boundary (EachMode fixup) -->
<g id="node10" class="node">
<title>[root] meta.count&#45;boundary (EachMode fixup)</title>
<ellipse fill="none" stroke="black" cx="176.13" cy="-450" rx="176.27" ry="18"/>
<text text-anchor="middle" x="176.13" y="-446.3" font-family="Times,serif" font-size="14.00">[root] meta.count&#45;boundary (EachMode fixup)</text>
</g>
<!-- [root] meta.count&#45;boundary (EachMode fixup)&#45;&gt;[root] azurerm_linux_virtual_machine.mylinuxvm (expand) -->
<g id="edge9" class="edge">
<title>[root] meta.count&#45;boundary (EachMode fixup)&#45;&gt;[root] azurerm_linux_virtual_machine.mylinuxvm (expand)</title>
<path fill="none" stroke="black" d="M246.93,-433.46C294.34,-423.06 357.08,-409.29 407.62,-398.2"/>
<polygon fill="black" stroke="black" points="408.54,-401.59 417.55,-396.02 407.04,-394.75 408.54,-401.59"/>
</g>
<!-- [root] provider[&quot;registry.terraform.io/hashicorp/azurerm&quot;] (close) -->
<g id="node11" class="node">
<title>[root] provider[&quot;registry.terraform.io/hashicorp/azurerm&quot;] (close)</title>
<ellipse fill="none" stroke="black" cx="613.13" cy="-450" rx="243.16" ry="18"/>
<text text-anchor="middle" x="613.13" y="-446.3" font-family="Times,serif" font-size="14.00">[root] provider[&quot;registry.terraform.io/hashicorp/azurerm&quot;] (close)</text>
</g>
<!-- [root] provider[&quot;registry.terraform.io/hashicorp/azurerm&quot;] (close)&#45;&gt;[root] azurerm_linux_virtual_machine.mylinuxvm (expand) -->
<g id="edge10" class="edge">
<title>[root] provider[&quot;registry.terraform.io/hashicorp/azurerm&quot;] (close)&#45;&gt;[root] azurerm_linux_virtual_machine.mylinuxvm (expand)</title>
<path fill="none" stroke="black" d="M584.57,-432.05C569.03,-422.84 549.61,-411.32 532.85,-401.37"/>
<polygon fill="black" stroke="black" points="534.23,-398.12 523.84,-396.03 530.66,-404.14 534.23,-398.12"/>
</g>
<!-- [root] provider[&quot;registry.terraform.io/hashicorp/random&quot;] (close) -->
<g id="node12" class="node">
<title>[root] provider[&quot;registry.terraform.io/hashicorp/random&quot;] (close)</title>
<ellipse fill="none" stroke="black" cx="884.13" cy="-378" rx="241.26" ry="18"/>
<text text-anchor="middle" x="884.13" y="-374.3" font-family="Times,serif" font-size="14.00">[root] provider[&quot;registry.terraform.io/hashicorp/random&quot;] (close)</text>
</g>
<!-- [root] provider[&quot;registry.terraform.io/hashicorp/random&quot;] (close)&#45;&gt;[root] random_string.myrandom (expand) -->
<g id="edge11" class="edge">
<title>[root] provider[&quot;registry.terraform.io/hashicorp/random&quot;] (close)&#45;&gt;[root] random_string.myrandom (expand)</title>
<path fill="none" stroke="black" d="M884.05,-359.85C883.88,-322.83 883.47,-235.18 883.26,-190.39"/>
<polygon fill="black" stroke="black" points="886.76,-190.22 883.21,-180.23 879.76,-190.25 886.76,-190.22"/>
</g>
<!-- [root] root -->
<g id="node13" class="node">
<title>[root] root</title>
<ellipse fill="none" stroke="black" cx="613.13" cy="-522" rx="47.39" ry="18"/>
<text text-anchor="middle" x="613.13" y="-518.3" font-family="Times,serif" font-size="14.00">[root] root</text>
</g>
<!-- [root] root&#45;&gt;[root] meta.count&#45;boundary (EachMode fixup) -->
<g id="edge13" class="edge">
<title>[root] root&#45;&gt;[root] meta.count&#45;boundary (EachMode fixup)</title>
<path fill="none" stroke="black" d="M570.04,-514.1C502.31,-503.25 369.13,-481.92 276.49,-467.07"/>
<polygon fill="black" stroke="black" points="276.95,-463.6 266.53,-465.48 275.85,-470.52 276.95,-463.6"/>
</g>
<!-- [root] root&#45;&gt;[root] provider[&quot;registry.terraform.io/hashicorp/azurerm&quot;] (close) -->
<g id="edge14" class="edge">
<title>[root] root&#45;&gt;[root] provider[&quot;registry.terraform.io/hashicorp/azurerm&quot;] (close)</title>
<path fill="none" stroke="black" d="M613.13,-503.7C613.13,-495.98 613.13,-486.71 613.13,-478.11"/>
<polygon fill="black" stroke="black" points="616.63,-478.1 613.13,-468.1 609.63,-478.1 616.63,-478.1"/>
</g>
<!-- [root] root&#45;&gt;[root] provider[&quot;registry.terraform.io/hashicorp/random&quot;] (close) -->
<g id="edge15" class="edge">
<title>[root] root&#45;&gt;[root] provider[&quot;registry.terraform.io/hashicorp/random&quot;] (close)</title>
<path fill="none" stroke="black" d="M659.04,-517.27C723.63,-511.07 836.64,-496.41 865.13,-468 881.09,-452.09 885.16,-426.29 885.64,-406.56"/>
<polygon fill="black" stroke="black" points="889.14,-406.3 885.59,-396.32 882.14,-406.34 889.14,-406.3"/>
</g>
</g>
</svg>
